<?xml version="1.0" standalone="no"?>
<!DOCTYPE svg PUBLIC "-//W3C//DTD SVG 20010904//EN"
 "http://www.w3.org/TR/2001/REC-SVG-20010904/DTD/svg10.dtd">
<svg version="1.0" xmlns="http://www.w3.org/2000/svg"
 width="295.000000pt" height="282.000000pt" viewBox="0 0 295.000000 282.000000"
 preserveAspectRatio="xMidYMid meet">

<g transform="translate(0.000000,282.000000) scale(0.100000,-0.100000)"
fill="#000000" stroke="none">
<path d="M40 2515 l0 -275 1435 0 1435 0 0 275 0 275 -1435 0 -1435 0 0 -275z
m2830 -5 l0 -240 -1395 0 -1395 0 0 240 0 240 1395 0 1395 0 0 -240z"/>
<path d="M294 2603 c-3 -16 -17 -65 -29 -111 l-23 -83 22 3 c13 2 22 11 24 26
3 18 10 22 37 22 27 0 34 -4 37 -22 2 -15 11 -24 24 -26 l22 -3 -24 83 c-13
46 -27 95 -30 111 -5 20 -13 27 -30 27 -18 0 -25 -7 -30 -27z m45 -85 c1 -12
-6 -18 -20 -18 -21 0 -21 -1 -1 65 5 18 6 18 13 -5 4 -14 7 -33 8 -42z"/>
<path d="M439 2620 c-21 -12 -32 -56 -20 -77 5 -9 28 -24 52 -34 35 -13 44
-22 44 -40 0 -32 -39 -38 -57 -10 -14 23 -48 29 -48 8 0 -7 7 -23 16 -35 20
-29 93 -31 117 -4 39 43 8 112 -49 112 -27 0 -46 22 -38 44 9 22 41 20 54 -4
14 -26 40 -26 40 -1 0 43 -67 67 -111 41z"/>
<path d="M596 2614 c-17 -16 -21 -61 -8 -80 4 -6 25 -17 47 -26 31 -12 40 -21
40 -39 0 -32 -39 -38 -57 -10 -26 42 -52 15 -28 -30 14 -26 90 -27 113 -1 39
43 8 112 -49 112 -27 0 -46 22 -38 44 9 22 41 20 54 -4 14 -26 40 -26 40 -1 0
30 -28 51 -65 51 -18 0 -41 -7 -49 -16z"/>
<path d="M740 2520 l0 -110 65 0 c58 0 65 2 65 20 0 17 -7 20 -45 20 -43 0
-45 1 -45 30 0 29 2 30 45 30 33 0 45 4 45 15 0 11 -12 15 -45 15 -41 0 -45 2
-45 25 0 23 4 25 45 25 38 0 45 3 45 20 0 18 -7 20 -65 20 l-65 0 0 -110z"/>
<path d="M890 2521 c0 -104 1 -111 20 -111 18 0 20 7 21 68 1 70 5 67 29 -25
16 -65 35 -54 58 35 l20 77 1 -77 c1 -71 3 -78 21 -78 19 0 20 7 20 110 l0
110 -28 0 c-27 0 -29 -3 -48 -82 l-20 -83 -20 80 c-18 74 -22 80 -47 83 l-27
3 0 -110z"/>
<path d="M1110 2520 l0 -110 53 0 c40 0 58 5 70 18 18 20 23 77 8 86 -5 3 -7
25 -4 48 7 52 -11 68 -79 68 l-48 0 0 -110z m93 58 c7 -23 -4 -38 -29 -38 -19
0 -24 5 -24 25 0 20 5 25 24 25 13 0 26 -6 29 -12z m2 -98 c0 -20 -6 -26 -27
-28 -25 -3 -28 0 -28 28 0 28 3 31 28 28 21 -2 27 -8 27 -28z"/>
<path d="M1280 2520 l0 -110 60 0 c53 0 60 2 60 20 0 17 -7 20 -45 20 l-45 0
0 90 c0 73 -3 90 -15 90 -12 0 -15 -19 -15 -110z"/>
<path d="M1420 2520 c0 -91 3 -110 15 -110 12 0 15 19 15 110 0 91 -3 110 -15
110 -12 0 -15 -19 -15 -110z"/>
<path d="M1480 2520 l0 -110 65 0 c58 0 65 2 65 20 0 17 -7 20 -45 20 -43 0
-45 1 -45 30 0 28 2 30 40 30 29 0 40 4 40 15 0 11 -11 15 -40 15 -36 0 -40 3
-40 25 0 23 4 25 45 25 38 0 45 3 45 20 0 18 -7 20 -65 20 l-65 0 0 -110z"/>
<path d="M1645 2614 c-10 -10 -15 -29 -13 -48 3 -26 11 -35 51 -54 39 -18 48
-27 45 -45 -4 -30 -43 -35 -58 -8 -9 18 -50 31 -50 15 0 -11 23 -49 34 -56 20
-14 84 -8 100 8 9 8 16 31 16 49 0 37 -21 57 -72 69 -19 4 -28 13 -28 27 0 30
30 36 51 11 24 -30 53 -30 44 1 -4 12 -14 28 -23 35 -22 17 -78 15 -97 -4z"/>
<path d="M1892 2623 c-55 -22 -53 -185 3 -207 32 -12 75 -6 94 13 39 39 39
138 0 179 -19 21 -65 28 -97 15z m72 -45 c31 -43 10 -138 -29 -138 -27 0 -45
31 -45 77 0 72 42 107 74 61z"/>
<path d="M2040 2520 c0 -89 3 -110 14 -110 11 0 16 14 18 48 3 47 3 47 41 50
53 5 51 32 -3 32 -36 0 -40 3 -40 25 0 23 4 25 45 25 38 0 45 3 45 20 0 18 -7
20 -60 20 l-60 0 0 -110z"/>
<path d="M2269 2611 c-21 -17 -24 -28 -24 -89 0 -55 4 -74 19 -91 21 -23 74
-29 93 -10 8 8 13 8 17 0 16 -26 26 -7 26 49 l0 60 -35 0 c-24 0 -35 -5 -35
-15 0 -8 7 -15 15 -15 18 0 20 -31 3 -48 -16 -16 -33 -15 -52 4 -10 10 -16 33
-16 64 0 70 43 106 72 60 16 -25 38 -26 38 -2 0 48 -77 69 -121 33z"/>
<path d="M2441 2604 c-16 -20 -21 -41 -21 -84 0 -79 26 -112 83 -108 54 4 81
39 81 108 0 69 -27 104 -81 108 -34 3 -44 -1 -62 -24z m87 -17 c33 -39 18
-138 -21 -145 -32 -6 -47 17 -47 74 0 70 37 108 68 71z"/>
<path d="M2610 2520 l0 -110 44 0 c33 0 52 6 73 24 25 21 28 31 28 86 0 55 -3
65 -28 86 -21 18 -40 24 -73 24 l-44 0 0 -110z m104 33 c14 -50 -3 -97 -37
-101 l-27 -3 0 71 0 71 27 -3 c21 -2 29 -10 37 -35z"/>
<path d="M40 2052 c0 -460 153 -999 386 -1359 275 -426 644 -663 1034 -665 58
-1 139 5 180 12 359 61 699 334 938 753 50 87 56 98 95 192 97 229 154 422
191 647 25 149 46 374 46 491 l0 57 -1435 0 -1435 0 0 -128z m2826 -54 c-40
-836 -412 -1554 -944 -1822 -192 -97 -371 -131 -562 -106 -601 76 -1100 707
-1244 1572 -21 126 -45 375 -46 476 l0 22 1401 0 1402 0 -7 -142z"/>
<path d="M910 2069 c-25 -12 -88 -36 -140 -56 -52 -19 -118 -44 -147 -55 l-52
-20 -108 38 c-59 20 -143 52 -186 71 -43 18 -83 33 -88 33 -6 0 -8 -121 -7
-300 l3 -301 105 -56 c58 -30 144 -77 192 -103 74 -41 89 -46 105 -35 10 7
100 55 201 106 l182 94 0 302 c0 167 -3 303 -7 302 -5 0 -28 -9 -53 -20z
m-545 -94 c22 -7 76 -27 119 -44 l79 -32 91 35 c50 19 123 46 162 59 l71 25 7
-76 c3 -41 6 -152 6 -247 l0 -172 -167 -86 -168 -86 -100 51 c-55 28 -126 66
-157 85 l-58 34 0 250 0 249 38 -16 c20 -9 55 -22 77 -29z"/>
<path d="M346 1833 c-6 -14 -5 -16 5 -5 7 6 20 12 28 12 11 0 10 -4 -5 -15
-18 -14 -18 -14 4 -10 16 3 22 -1 22 -16 0 -11 -7 -19 -16 -19 -9 0 -12 5 -8
13 6 9 5 9 -8 0 -8 -7 -17 -11 -19 -8 -3 2 -5 -4 -5 -13 -1 -9 -4 -26 -8 -37
-6 -15 -5 -17 2 -6 8 12 13 12 25 2 9 -7 18 -8 21 -3 3 6 -1 12 -9 16 -21 8
-19 26 4 26 12 0 21 -9 25 -26 10 -40 18 -22 20 44 l1 58 -36 3 c-27 1 -38 -3
-43 -16z"/>
<path d="M458 1844 c-12 -11 -9 -102 3 -109 6 -4 11 -5 12 -4 6 11 -9 120 -15
113z"/>
<path d="M590 1842 c0 -6 7 -12 15 -16 9 -3 15 -18 15 -38 0 -25 -3 -29 -10
-18 -5 8 -7 24 -4 35 5 15 3 17 -6 9 -6 -6 -10 -27 -8 -45 2 -26 9 -36 31 -43
23 -9 31 -6 50 14 12 13 14 18 5 11 -16 -12 -18 -10 -18 29 0 27 6 47 15 54
12 9 5 12 -35 14 -27 2 -50 -1 -50 -6z m56 -100 c-11 -10 -13 3 -7 48 l6 45 3
-44 c2 -23 1 -46 -2 -49z"/>
<path d="M703 1836 c-11 -19 -4 -106 8 -106 5 0 9 27 9 60 0 62 -3 70 -17 46z"/>
<path d="M502 1788 c2 -28 8 -53 13 -55 6 -2 9 18 7 52 -2 30 -8 55 -13 55 -6
0 -9 -23 -7 -52z"/>
<path d="M741 1820 c-7 -15 -5 -108 2 -101 4 4 6 30 4 57 -2 27 -4 47 -6 44z"/>
<path d="M782 1808 c-18 -18 -15 -78 3 -78 9 0 12 6 8 15 -3 9 2 24 11 34 14
15 14 20 3 29 -10 9 -17 8 -25 0z"/>
<path d="M360 1600 c-32 -30 -36 -49 -20 -81 14 -25 61 -25 83 -1 20 22 22 53
5 70 -10 10 -10 15 1 21 9 6 5 10 -13 13 -20 4 -35 -2 -56 -22z m35 1 c3 -5 1
-12 -5 -16 -5 -3 -10 1 -10 9 0 18 6 21 15 7z m-20 -54 c9 28 30 36 46 17 26
-31 -25 -70 -56 -44 -8 7 -14 27 -14 44 l2 31 7 -35 c7 -31 8 -33 15 -13z"/>
<path d="M400 1540 c0 -5 5 -10 10 -10 6 0 10 5 10 10 0 6 -4 10 -10 10 -5 0
-10 -4 -10 -10z"/>
<path d="M720 1566 c0 -30 5 -58 11 -61 15 -10 15 -7 11 58 -5 73 -22 75 -22
3z"/>
<path d="M466 1578 c-19 -59 -7 -86 30 -71 22 8 15 77 -9 81 -9 2 -19 -2 -21
-10z m24 -34 c0 -13 -4 -24 -10 -24 -5 0 -10 14 -10 31 0 17 4 28 10 24 6 -3
10 -17 10 -31z"/>
<path d="M524 1575 c-6 -16 2 -35 16 -35 4 0 6 9 3 20 -4 15 -2 19 10 14 8 -3
18 -1 22 5 4 7 -4 11 -20 11 -14 0 -28 -7 -31 -15z"/>
<path d="M590 1535 c0 -37 4 -55 14 -58 10 -4 13 -1 10 7 -3 7 2 16 10 19 11
4 16 19 16 45 0 35 -3 40 -25 40 -24 0 -25 -4 -25 -53z m40 10 c0 -14 -4 -25
-10 -25 -5 0 -10 11 -10 25 0 14 5 25 10 25 6 0 10 -11 10 -25z"/>
<path d="M667 1583 c-11 -10 -8 -71 3 -78 6 -3 15 -3 21 1 8 4 7 9 -2 15 -12
7 -12 12 -1 29 17 28 0 54 -21 33z"/>
<path d="M557 1539 c5 -18 3 -21 -10 -16 -8 3 -18 0 -20 -7 -5 -12 6 -14 46
-7 12 2 4 44 -10 48 -7 3 -9 -4 -6 -18z"/>
<path d="M1164 1909 c-43 -51 -90 -105 -103 -121 l-23 -29 31 -83 32 -82 -57
-151 c-53 -141 -58 -151 -86 -157 -21 -4 -33 -15 -43 -41 -20 -47 -19 -55 10
-55 l25 0 -40 -80 c-22 -44 -50 -86 -62 -94 -58 -37 -148 -27 -148 17 0 13 18
60 40 105 35 73 37 82 21 82 -14 0 -40 -38 -97 -136 -66 -118 -76 -140 -68
-162 12 -36 64 -68 130 -83 126 -28 198 33 285 244 l38 92 102 9 c121 11 108
21 174 -138 58 -137 79 -173 119 -197 66 -40 132 -19 213 70 l52 56 47 -48
c62 -63 88 -75 183 -88 96 -13 120 -7 214 55 l67 44 0 -161 0 -161 -42 -43
-42 -43 -566 0 -565 0 -52 24 c-55 26 -141 86 -204 143 -29 26 -42 32 -54 25
-43 -23 275 -346 407 -413 37 -19 58 -20 471 -17 344 2 437 6 457 17 36 20
276 279 323 348 21 32 57 96 80 143 l41 85 4 155 c4 126 8 162 23 192 11 21
19 40 19 43 0 3 -131 5 -291 5 l-292 0 6 113 c7 132 40 260 93 354 47 85 58
90 104 42 33 -35 42 -39 84 -39 26 0 61 7 79 16 32 16 227 202 227 216 0 10
-29 -1 -61 -23 -60 -42 -145 -79 -181 -79 -40 0 -48 7 -63 60 l-11 35 -64 0
c-57 0 -77 -6 -161 -47 -221 -108 -317 -267 -345 -571 l-7 -77 -44 0 -44 0
-25 58 c-14 31 -29 66 -34 77 -5 11 -31 76 -59 145 -80 199 -157 384 -173 414
l-14 27 -80 -92z m26 -534 c38 -104 41 -95 -34 -95 -36 0 -66 2 -66 4 0 20 64
166 70 159 5 -4 18 -35 30 -68z m466 -239 c7 -38 7 -53 -1 -50 -9 4 -65 88
-65 99 0 3 13 5 28 5 27 0 29 -4 38 -54z m564 -1 c0 -68 -14 -100 -57 -125
-42 -25 -54 -25 -103 0 -48 24 -87 75 -105 135 l-14 45 139 0 140 0 0 -55z"/>
</g>
</svg>
